<?xml version="1.0" encoding="utf-8"?>
<!-- Generator: Adobe Illustrator 21.0.0, SVG Export Plug-In . SVG Version: 6.00 Build 0)  -->
<svg version="1.1" id="Layer_1" xmlns="http://www.w3.org/2000/svg" xmlns:xlink="http://www.w3.org/1999/xlink" x="0px" y="0px"
	 viewBox="0 0 728.5 515.9" enable-background="new 0 0 728.5 515.9" xml:space="preserve">
<g>
	<path fill="#FFFFFF" d="M204.8,192.7v-4.1c10.3,0.4,18.4,0.6,24.3,0.6l18.8-0.3c5.6,0,10,0.6,13.3,1.8c3.2,1.2,5.9,3.4,7.9,6.5
		c2,3.2,3,7,3,11.5c0,7.2-2.5,13.2-7.4,17.9c-4.9,4.7-11.6,7-20.2,7c-2.6,0-5.9-0.3-9.9-1c0.1,10,0.1,15.8,0.1,17.3l-0.1,4.1
		c0,3.6,0.3,5.7,0.9,6.4c1,1.2,4.4,2.1,10.3,2.9c0.7,0.1,1.7,0.2,3,0.4v4.1c-10.7-0.4-18.4-0.6-23.1-0.6c-5.5,0-12.5,0.2-21,0.6
		v-4.1c6.6-1.2,10.2-2.1,11-2.7c0.8-0.7,1.2-1.9,1.4-3.7c0.1-1.8,0.3-11.9,0.4-30.3l-0.1-16.9c-0.1-6.8-0.2-10.8-0.4-12
		c-0.2-1.2-0.7-2-1.5-2.6c-1-0.7-3.8-1.4-8.4-2.3C206.7,193.1,205.9,192.9,204.8,192.7z M234.6,226.3c2.3,0.2,4.2,0.3,5.9,0.3
		c4.3,0,7.7-1.3,10.1-4c2.4-2.6,3.6-6.7,3.6-12.3c0-4.9-1.2-8.6-3.6-11.2c-2.4-2.5-5.8-3.8-10.2-3.8c-1.7,0-3.6,0.2-5.9,0.6V226.3z"
		/>
	<path fill="#FFFFFF" d="M276.1,192.7v-4.1c6.7,0.4,12.2,0.6,16.5,0.6c4.6,0,9.6-0.2,15-0.6c1.6,4.2,3.6,9.3,6.2,15.1
		c6.9,15.6,13.1,28.9,18.4,39.9l14.1-30.4c2.2-5,4-9,5.3-12.2c1.3-3.2,2.9-7.3,4.8-12.3c7.1,0.4,12.2,0.6,15.4,0.6
		c2.8,0,7.7-0.2,14.9-0.6v4.1c-1.1,0.2-1.9,0.4-2.5,0.4c-4.8,0.8-7.6,1.6-8.3,2.2c-0.8,0.7-1.2,2.1-1.4,4.2
		c-0.2,2.1-0.3,10.6-0.3,25.3c0,18.8,0,28.6,0.1,29.4c0.1,2.9,0.3,4.8,0.6,5.4c0.3,0.7,0.7,1.2,1.2,1.5c1.3,0.7,4,1.4,8.2,2.1
		l2.5,0.5v4.1c-9-0.4-15.9-0.6-20.6-0.6c-4.9,0-12.1,0.2-21.6,0.6v-4.1c5.9-1.1,9.2-1.8,9.9-2.1s1.3-0.7,1.6-1.3
		c0.4-0.5,0.6-1.2,0.8-2.1c0.1-0.9,0.2-4.7,0.2-11.5c0.1-14.6,0.1-26.1,0.1-34.3c0-0.8,0-3.2-0.1-7.3c-2.1,4.2-9.5,20.8-22.5,49.6
		l-5.6,12.5h-4.3c-4.2-9.5-13.7-30.3-28.5-62.5c-0.1,4.9-0.1,9-0.1,12.4c0,18.6,0.2,30.9,0.5,36.9c0.2,3.4,0.4,5.3,0.6,5.8
		c0.3,0.7,0.8,1.3,1.7,1.7c0.9,0.4,3.4,1,7.6,1.7c0.5,0.1,1.3,0.3,2.3,0.4v4.1c-5.3-0.4-10.4-0.6-15.3-0.6c-5,0-10.6,0.2-16.9,0.6
		v-4.1c4.8-0.9,7.8-1.5,8.8-1.8c1-0.4,1.8-1,2.3-1.8c0.5-0.9,0.8-2.5,0.8-4.8l0.7-35.5c0.1-6.2,0.2-10.8,0.2-13.9
		c0-4.7-0.2-7.7-0.7-9.2c-0.3-0.9-0.9-1.6-1.7-2s-3.6-1-8.2-1.6C278.1,193,277.3,192.9,276.1,192.7z"/>
	<path fill="#FFFFFF" d="M388.4,192.7v-4.1c10.3,0.4,18.4,0.6,24.3,0.6l18.8-0.3c5.6,0,10,0.6,13.3,1.8c3.2,1.2,5.9,3.4,7.9,6.5
		c2,3.2,3,7,3,11.5c0,7.2-2.5,13.2-7.4,17.9c-4.9,4.7-11.6,7-20.2,7c-2.6,0-5.9-0.3-9.9-1c0.1,10,0.1,15.8,0.1,17.3l-0.1,4.1
		c0,3.6,0.3,5.7,0.9,6.4c1,1.2,4.4,2.1,10.3,2.9c0.7,0.1,1.7,0.2,3,0.4v4.1c-10.7-0.4-18.4-0.6-23.1-0.6c-5.5,0-12.5,0.2-21,0.6
		v-4.1c6.6-1.2,10.2-2.1,11-2.7c0.8-0.7,1.2-1.9,1.4-3.7c0.1-1.8,0.3-11.9,0.4-30.3l-0.1-16.9c-0.1-6.8-0.2-10.8-0.4-12
		c-0.2-1.2-0.7-2-1.5-2.6c-1-0.7-3.8-1.4-8.4-2.3C390.3,193.1,389.5,192.9,388.4,192.7z M418.2,226.3c2.3,0.2,4.2,0.3,5.9,0.3
		c4.3,0,7.7-1.3,10.1-4c2.4-2.6,3.6-6.7,3.6-12.3c0-4.9-1.2-8.6-3.6-11.2c-2.4-2.5-5.8-3.8-10.2-3.8c-1.7,0-3.6,0.2-5.9,0.6V226.3z"
		/>
</g>
<g>
	<path fill="#FFFFFF" d="M204.8,192.7v-4.1c10.3,0.4,18.4,0.6,24.3,0.6l18.8-0.3c5.6,0,10,0.6,13.3,1.8c3.2,1.2,5.9,3.4,7.9,6.5
		c2,3.2,3,7,3,11.5c0,7.2-2.5,13.2-7.4,17.9c-4.9,4.7-11.6,7-20.2,7c-2.6,0-5.9-0.3-9.9-1c0.1,10,0.1,15.8,0.1,17.3l-0.1,4.1
		c0,3.6,0.3,5.7,0.9,6.4c1,1.2,4.4,2.1,10.3,2.9c0.7,0.1,1.7,0.2,3,0.4v4.1c-10.7-0.4-18.4-0.6-23.1-0.6c-5.5,0-12.5,0.2-21,0.6
		v-4.1c6.6-1.2,10.2-2.1,11-2.7c0.8-0.7,1.2-1.9,1.4-3.7c0.1-1.8,0.3-11.9,0.4-30.3l-0.1-16.9c-0.1-6.8-0.2-10.8-0.4-12
		c-0.2-1.2-0.7-2-1.5-2.6c-1-0.7-3.8-1.4-8.4-2.3C206.7,193.1,205.9,192.9,204.8,192.7z M234.6,226.3c2.3,0.2,4.2,0.3,5.9,0.3
		c4.3,0,7.7-1.3,10.1-4c2.4-2.6,3.6-6.7,3.6-12.3c0-4.9-1.2-8.6-3.6-11.2c-2.4-2.5-5.8-3.8-10.2-3.8c-1.7,0-3.6,0.2-5.9,0.6V226.3z"
		/>
	<path fill="#FFFFFF" d="M276.1,192.7v-4.1c6.7,0.4,12.2,0.6,16.5,0.6c4.6,0,9.6-0.2,15-0.6c1.6,4.2,3.6,9.3,6.2,15.1
		c6.9,15.6,13.1,28.9,18.4,39.9l14.1-30.4c2.2-5,4-9,5.3-12.2c1.3-3.2,2.9-7.3,4.8-12.3c7.1,0.4,12.2,0.6,15.4,0.6
		c2.8,0,7.7-0.2,14.9-0.6v4.1c-1.1,0.2-1.9,0.4-2.5,0.4c-4.8,0.8-7.6,1.6-8.3,2.2c-0.8,0.7-1.2,2.1-1.4,4.2
		c-0.2,2.1-0.3,10.6-0.3,25.3c0,18.8,0,28.6,0.1,29.4c0.1,2.9,0.3,4.8,0.6,5.4c0.3,0.7,0.7,1.2,1.2,1.5c1.3,0.7,4,1.4,8.2,2.1
		l2.5,0.5v4.1c-9-0.4-15.9-0.6-20.6-0.6c-4.9,0-12.1,0.2-21.6,0.6v-4.1c5.9-1.1,9.2-1.8,9.9-2.1s1.3-0.7,1.6-1.3
		c0.4-0.5,0.6-1.2,0.8-2.1c0.1-0.9,0.2-4.7,0.2-11.5c0.1-14.6,0.1-26.1,0.1-34.3c0-0.8,0-3.2-0.1-7.3c-2.1,4.2-9.5,20.8-22.5,49.6
		l-5.6,12.5h-4.3c-4.2-9.5-13.7-30.3-28.5-62.5c-0.1,4.9-0.1,9-0.1,12.4c0,18.6,0.2,30.9,0.5,36.9c0.2,3.4,0.4,5.3,0.6,5.8
		c0.3,0.7,0.8,1.3,1.7,1.7c0.9,0.4,3.4,1,7.6,1.7c0.5,0.1,1.3,0.3,2.3,0.4v4.1c-5.3-0.4-10.4-0.6-15.3-0.6c-5,0-10.6,0.2-16.9,0.6
		v-4.1c4.8-0.9,7.8-1.5,8.8-1.8c1-0.4,1.8-1,2.3-1.8c0.5-0.9,0.8-2.5,0.8-4.8l0.7-35.5c0.1-6.2,0.2-10.8,0.2-13.9
		c0-4.7-0.2-7.7-0.7-9.2c-0.3-0.9-0.9-1.6-1.7-2s-3.6-1-8.2-1.6C278.1,193,277.3,192.9,276.1,192.7z"/>
	<path fill="#FFFFFF" d="M388.4,192.7v-4.1c10.3,0.4,18.4,0.6,24.3,0.6l18.8-0.3c5.6,0,10,0.6,13.3,1.8c3.2,1.2,5.9,3.4,7.9,6.5
		c2,3.2,3,7,3,11.5c0,7.2-2.5,13.2-7.4,17.9c-4.9,4.7-11.6,7-20.2,7c-2.6,0-5.9-0.3-9.9-1c0.1,10,0.1,15.8,0.1,17.3l-0.1,4.1
		c0,3.6,0.3,5.7,0.9,6.4c1,1.2,4.4,2.1,10.3,2.9c0.7,0.1,1.7,0.2,3,0.4v4.1c-10.7-0.4-18.4-0.6-23.1-0.6c-5.5,0-12.5,0.2-21,0.6
		v-4.1c6.6-1.2,10.2-2.1,11-2.7c0.8-0.7,1.2-1.9,1.4-3.7c0.1-1.8,0.3-11.9,0.4-30.3l-0.1-16.9c-0.1-6.8-0.2-10.8-0.4-12
		c-0.2-1.2-0.7-2-1.5-2.6c-1-0.7-3.8-1.4-8.4-2.3C390.3,193.1,389.5,192.9,388.4,192.7z M418.2,226.3c2.3,0.2,4.2,0.3,5.9,0.3
		c4.3,0,7.7-1.3,10.1-4c2.4-2.6,3.6-6.7,3.6-12.3c0-4.9-1.2-8.6-3.6-11.2c-2.4-2.5-5.8-3.8-10.2-3.8c-1.7,0-3.6,0.2-5.9,0.6V226.3z"
		/>
</g>
</svg>
